<svg xmlns="http://www.w3.org/2000/svg" width="1200" height="680" viewBox="0 0 1200 680">
<rect width="100%" height="100%" fill="white"/>
<text x="600" y="38" text-anchor="middle" font-family="Arial" font-size="24">Key Methods: Elapsed Seconds</text>
<rect x="90" y="90" width="1050" height="470" fill="none" stroke="#202020" stroke-width="1"/>
<line x1="90" y1="90" x2="1140" y2="90" stroke="#e5e5e5" stroke-width="1"/>
<line x1="90" y1="184" x2="1140" y2="184" stroke="#e5e5e5" stroke-width="1"/>
<line x1="90" y1="278" x2="1140" y2="278" stroke="#e5e5e5" stroke-width="1"/>
<line x1="90" y1="372" x2="1140" y2="372" stroke="#e5e5e5" stroke-width="1"/>
<line x1="90" y1="466" x2="1140" y2="466" stroke="#e5e5e5" stroke-width="1"/>
<line x1="90" y1="560" x2="1140" y2="560" stroke="#e5e5e5" stroke-width="1"/>
<rect x="114" y="545" width="127" height="15" fill="#d67d3d" opacity="0.85"/>
<text x="177" y="537" text-anchor="middle" font-family="Arial" font-size="12">148.0</text>
<text x="177" y="578" transform="rotate(35 177,578)" text-anchor="start" font-family="Arial" font-size="11">NO_RAG zero-shot</text>
<rect x="289" y="223" width="127" height="337" fill="#d67d3d" opacity="0.85"/>
<text x="352" y="215" text-anchor="middle" font-family="Arial" font-size="12">3154.3</text>
<text x="352" y="578" transform="rotate(35 352,578)" text-anchor="start" font-family="Arial" font-size="11">NO_RAG CoT</text>
<rect x="464" y="519" width="127" height="41" fill="#d67d3d" opacity="0.85"/>
<text x="527" y="511" text-anchor="middle" font-family="Arial" font-size="12">387.5</text>
<text x="527" y="578" transform="rotate(35 527,578)" text-anchor="start" font-family="Arial" font-size="11">RAG dense zs r_off no_</text>
<rect x="639" y="470" width="127" height="90" fill="#d67d3d" opacity="0.85"/>
<text x="702" y="462" text-anchor="middle" font-family="Arial" font-size="12">843.7</text>
<text x="702" y="578" transform="rotate(35 702,578)" text-anchor="start" font-family="Arial" font-size="11">RAG dense zs r_on ref</text>
<rect x="814" y="231" width="127" height="329" fill="#d67d3d" opacity="0.85"/>
<text x="877" y="223" text-anchor="middle" font-family="Arial" font-size="12">3079.2</text>
<text x="877" y="578" transform="rotate(35 877,578)" text-anchor="start" font-family="Arial" font-size="11">RAG hybrid zs r_on ref</text>
<rect x="989" y="90" width="127" height="470" fill="#d67d3d" opacity="0.85"/>
<text x="1052" y="82" text-anchor="middle" font-family="Arial" font-size="12">4391.9</text>
<text x="1052" y="578" transform="rotate(35 1052,578)" text-anchor="start" font-family="Arial" font-size="11">RAG dense CoT r_on ref</text>
</svg>