<svg xmlns="http://www.w3.org/2000/svg" width="1200" height="680" viewBox="0 0 1200 680">
<rect width="100%" height="100%" fill="white"/>
<text x="600" y="38" text-anchor="middle" font-family="Arial" font-size="24">Key Methods: Accuracy</text>
<rect x="90" y="90" width="1050" height="470" fill="none" stroke="#202020" stroke-width="1"/>
<line x1="90" y1="90" x2="1140" y2="90" stroke="#e5e5e5" stroke-width="1"/>
<line x1="90" y1="184" x2="1140" y2="184" stroke="#e5e5e5" stroke-width="1"/>
<line x1="90" y1="278" x2="1140" y2="278" stroke="#e5e5e5" stroke-width="1"/>
<line x1="90" y1="372" x2="1140" y2="372" stroke="#e5e5e5" stroke-width="1"/>
<line x1="90" y1="466" x2="1140" y2="466" stroke="#e5e5e5" stroke-width="1"/>
<line x1="90" y1="560" x2="1140" y2="560" stroke="#e5e5e5" stroke-width="1"/>
<rect x="114" y="126" width="127" height="434" fill="#3e72c4" opacity="0.85"/>
<text x="177" y="118" text-anchor="middle" font-family="Arial" font-size="12">0.5593</text>
<text x="177" y="578" transform="rotate(35 177,578)" text-anchor="start" font-family="Arial" font-size="11">NO_RAG zero-shot</text>
<rect x="289" y="97" width="127" height="463" fill="#3e72c4" opacity="0.85"/>
<text x="352" y="89" text-anchor="middle" font-family="Arial" font-size="12">0.5970</text>
<text x="352" y="578" transform="rotate(35 352,578)" text-anchor="start" font-family="Arial" font-size="11">NO_RAG CoT</text>
<rect x="464" y="101" width="127" height="459" fill="#3e72c4" opacity="0.85"/>
<text x="527" y="93" text-anchor="middle" font-family="Arial" font-size="12">0.5907</text>
<text x="527" y="578" transform="rotate(35 527,578)" text-anchor="start" font-family="Arial" font-size="11">RAG dense zs r_off no_</text>
<rect x="639" y="90" width="127" height="470" fill="#3e72c4" opacity="0.85"/>
<text x="702" y="82" text-anchor="middle" font-family="Arial" font-size="12">0.6049</text>
<text x="702" y="578" transform="rotate(35 702,578)" text-anchor="start" font-family="Arial" font-size="11">RAG dense zs r_on ref</text>
<rect x="814" y="100" width="127" height="460" fill="#3e72c4" opacity="0.85"/>
<text x="877" y="92" text-anchor="middle" font-family="Arial" font-size="12">0.5931</text>
<text x="877" y="578" transform="rotate(35 877,578)" text-anchor="start" font-family="Arial" font-size="11">RAG hybrid zs r_on ref</text>
<rect x="989" y="92" width="127" height="468" fill="#3e72c4" opacity="0.85"/>
<text x="1052" y="84" text-anchor="middle" font-family="Arial" font-size="12">0.6033</text>
<text x="1052" y="578" transform="rotate(35 1052,578)" text-anchor="start" font-family="Arial" font-size="11">RAG dense CoT r_on ref</text>
</svg>